<mxfile
  host="Electron" 
  agent="Mozilla/5.0 (Macintosh; Intel Mac OS X 10_15_7) AppleWebKit/537.36 (KHTML, like Gecko) draw.io/25.0.2 Chrome/128.0.6613.186 Electron/32.2.5 Safari/537.36" 
  version="25.0.2"
  >
  <diagram
    name="module--package-relationships"
    >
    <mxGraphModel
      grid="1" 
      gridSize="10" 
      guides="1" 
      tooltips="1" 
      connect="1" 
      arrows="1" 
      fold="1" 
      page="1" 
      pageScale="1" 
      pageWidth="1" 
      pageHeight="1" 
      math="0" 
      shadow="0"
      >
      <root>
        <mxCell
          id="page"
          />
        <mxCell
          id="root" 
          parent="page"
          />
        <mxCell
          style="align=center;strokeColor=none;verticalAlign=top;aspect=fixed" 
          id="modules_modulepackagerelationships" 
          parent="root" 
          value="Module / Package relationships" 
          vertex="1"
          >
          <mxGeometry
            as="geometry" 
            width="1130" 
            height="780" 
            x="0" 
            y="0"
            />
          </mxCell>
        <mxCell
          style="align=center;spacingLeft=5;spacingRight=5;spacingBottom=5;verticalAlign=top;aspect=fixed;noLabel=1;opacity=0" 
          id="row" 
          parent="modules_modulepackagerelationships" 
          value="Row" 
          vertex="1"
          >
          <mxGeometry
            as="geometry" 
            width="1070" 
            height="90" 
            x="30" 
            y="30"
            />
          </mxCell>
        <mxCell
          style="align=center;spacingLeft=5;spacingRight=5;spacingBottom=5;verticalAlign=top;aspect=fixed" 
          id="renderers" 
          parent="row" 
          value="Renderers" 
          vertex="1"
          >
          <mxGeometry
            width="520" 
            as="geometry" 
            height="90" 
            x="0" 
            y="0"
            />
          </mxCell>
        <mxCell
          style="rounded=1;whiteSpace=wrap;verticalAlign=middle;align=center" 
          id="module_rendererjson" 
          parent="renderers" 
          value="renderer-json" 
          vertex="1"
          >
          <mxGeometry
            width="100" 
            height="30" 
            as="geometry" 
            x="46.66666666666667" 
            y="30"
            />
          </mxCell>
        <mxCell
          style="rounded=1;whiteSpace=wrap;verticalAlign=middle;align=center" 
          id="module_rendererdrawio" 
          parent="renderers" 
          value="renderer-drawio" 
          vertex="1"
          >
          <mxGeometry
            width="100" 
            height="30" 
            as="geometry" 
            x="210" 
            y="30"
            />
          </mxCell>
        <mxCell
          style="rounded=1;whiteSpace=wrap;verticalAlign=middle;align=center" 
          id="module_renderertf" 
          parent="renderers" 
          value="renderer-tf" 
          vertex="1"
          >
          <mxGeometry
            width="100" 
            height="30" 
            as="geometry" 
            x="373.33333333333337" 
            y="30"
            />
          </mxCell>
        <mxCell
          style="align=center;spacingLeft=5;spacingRight=5;spacingBottom=5;verticalAlign=top;aspect=fixed" 
          id="project_managers_projectmanagers" 
          parent="row" 
          value="Project Managers" 
          vertex="1"
          >
          <mxGeometry
            width="520" 
            as="geometry" 
            height="90" 
            x="550" 
            y="0"
            />
          </mxCell>
        <mxCell
          style="rounded=1;whiteSpace=wrap;verticalAlign=middle;align=center" 
          id="module_runner" 
          parent="project_managers_projectmanagers" 
          value="runner" 
          vertex="1"
          >
          <mxGeometry
            width="100" 
            height="30" 
            as="geometry" 
            x="87.5" 
            y="30"
            />
          </mxCell>
        <mxCell
          style="rounded=1;whiteSpace=wrap;verticalAlign=middle;align=center" 
          id="module_actions" 
          parent="project_managers_projectmanagers" 
          value="actions" 
          vertex="1"
          >
          <mxGeometry
            width="100" 
            height="30" 
            as="geometry" 
            x="332.5" 
            y="30"
            />
          </mxCell>
        <mxCell
          style="align=center;spacingLeft=5;spacingRight=5;spacingBottom=5;verticalAlign=top;aspect=fixed;noLabel=1;opacity=0" 
          id="row_2" 
          parent="modules_modulepackagerelationships" 
          value="Row" 
          vertex="1"
          >
          <mxGeometry
            as="geometry" 
            width="1070" 
            height="90" 
            x="30" 
            y="180"
            />
          </mxCell>
        <mxCell
          style="align=center;spacingLeft=5;spacingRight=5;spacingBottom=5;verticalAlign=top;aspect=fixed" 
          id="base_renderer_baserenderer" 
          parent="row_2" 
          value="Base Renderer" 
          vertex="1"
          >
          <mxGeometry
            width="520" 
            as="geometry" 
            height="90" 
            x="0" 
            y="0"
            />
          </mxCell>
        <mxCell
          style="rounded=1;whiteSpace=wrap;verticalAlign=middle;align=center" 
          id="module_reconciler" 
          parent="base_renderer_baserenderer" 
          value="reconciler" 
          vertex="1"
          >
          <mxGeometry
            width="100" 
            height="30" 
            as="geometry" 
            x="210" 
            y="30"
            />
          </mxCell>
        <mxCell
          style="align=center;spacingLeft=5;spacingRight=5;spacingBottom=5;verticalAlign=top;aspect=fixed;noLabel=1;opacity=0" 
          id="row_3" 
          parent="modules_modulepackagerelationships" 
          value="Row" 
          vertex="1"
          >
          <mxGeometry
            as="geometry" 
            width="1070" 
            height="90" 
            x="30" 
            y="330"
            />
          </mxCell>
        <mxCell
          style="align=center;spacingLeft=5;spacingRight=5;spacingBottom=5;verticalAlign=top;aspect=fixed" 
          id="base_components_basecomponents" 
          parent="row_3" 
          value="Base Components" 
          vertex="1"
          >
          <mxGeometry
            width="520" 
            as="geometry" 
            height="90" 
            x="0" 
            y="0"
            />
          </mxCell>
        <mxCell
          style="rounded=1;whiteSpace=wrap;verticalAlign=middle;align=center" 
          id="module_types" 
          parent="base_components_basecomponents" 
          value="types" 
          vertex="1"
          >
          <mxGeometry
            width="100" 
            height="30" 
            as="geometry" 
            x="46.66666666666667" 
            y="30"
            />
          </mxCell>
        <mxCell
          style="rounded=1;whiteSpace=wrap;verticalAlign=middle;align=center" 
          id="module_components" 
          parent="base_components_basecomponents" 
          value="components" 
          vertex="1"
          >
          <mxGeometry
            width="100" 
            height="30" 
            as="geometry" 
            x="210" 
            y="30"
            />
          </mxCell>
        <mxCell
          style="rounded=1;whiteSpace=wrap;verticalAlign=middle;align=center" 
          id="module_contexts" 
          parent="base_components_basecomponents" 
          value="contexts" 
          vertex="1"
          >
          <mxGeometry
            width="100" 
            height="30" 
            as="geometry" 
            x="373.33333333333337" 
            y="30"
            />
          </mxCell>
        <mxCell
          style="align=center;spacingLeft=5;spacingRight=5;spacingBottom=5;verticalAlign=top;aspect=fixed" 
          id="clients" 
          parent="row_3" 
          value="Clients" 
          vertex="1"
          >
          <mxGeometry
            width="520" 
            as="geometry" 
            height="90" 
            x="550" 
            y="0"
            />
          </mxCell>
        <mxCell
          style="rounded=1;whiteSpace=wrap;verticalAlign=middle;align=center" 
          id="module_cli" 
          parent="clients" 
          value="cli" 
          vertex="1"
          >
          <mxGeometry
            width="100" 
            height="30" 
            as="geometry" 
            x="87.5" 
            y="30"
            />
          </mxCell>
        <mxCell
          style="rounded=1;whiteSpace=wrap;verticalAlign=middle;align=center" 
          id="module_playground" 
          parent="clients" 
          value="playground" 
          vertex="1"
          >
          <mxGeometry
            width="100" 
            height="30" 
            as="geometry" 
            x="332.5" 
            y="30"
            />
          </mxCell>
        <mxCell
          style="align=center;spacingLeft=5;spacingRight=5;spacingBottom=5;verticalAlign=top;aspect=fixed;noLabel=1;opacity=0" 
          id="row_4" 
          parent="modules_modulepackagerelationships" 
          value="Row" 
          vertex="1"
          >
          <mxGeometry
            as="geometry" 
            width="1070" 
            height="270" 
            x="30" 
            y="480"
            />
          </mxCell>
        <mxCell
          style="align=center;spacingLeft=5;spacingRight=5;spacingBottom=5;verticalAlign=top;aspect=fixed" 
          id="standard_components_standardcomponents" 
          parent="row_4" 
          value="Standard Components" 
          vertex="1"
          >
          <mxGeometry
            width="520" 
            as="geometry" 
            height="270" 
            x="0" 
            y="0"
            />
          </mxCell>
        <mxCell
          style="rounded=1;whiteSpace=wrap;verticalAlign=middle;align=center" 
          id="module_standarddiagrams" 
          parent="standard_components_standardcomponents" 
          value="standard-diagrams" 
          vertex="1"
          >
          <mxGeometry
            width="100" 
            height="30" 
            as="geometry" 
            x="210" 
            y="30"
            />
          </mxCell>
        <mxCell
          style="rounded=1;whiteSpace=wrap;verticalAlign=middle;align=center" 
          id="module_standardcomponentsaws" 
          parent="standard_components_standardcomponents" 
          value="standard-components-aws" 
          vertex="1"
          >
          <mxGeometry
            width="100" 
            height="30" 
            as="geometry" 
            x="210" 
            y="120"
            />
          </mxCell>
        <mxCell
          style="align=center;spacingLeft=5;spacingRight=5;spacingBottom=5;verticalAlign=top;aspect=fixed" 
          id="examples" 
          parent="row_4" 
          value="Examples" 
          vertex="1"
          >
          <mxGeometry
            width="520" 
            as="geometry" 
            height="270" 
            x="550" 
            y="0"
            />
          </mxCell>
        <mxCell
          style="rounded=1;whiteSpace=wrap;verticalAlign=middle;align=center" 
          id="module_diagram" 
          parent="examples" 
          value="diagram" 
          vertex="1"
          >
          <mxGeometry
            width="100" 
            height="30" 
            as="geometry" 
            x="210" 
            y="30"
            />
          </mxCell>
        <mxCell
          style="rounded=1;whiteSpace=wrap;verticalAlign=middle;align=center" 
          id="module_iac" 
          parent="examples" 
          value="iac" 
          vertex="1"
          >
          <mxGeometry
            width="100" 
            height="30" 
            as="geometry" 
            x="210" 
            y="120"
            />
          </mxCell>
        <mxCell
          style="rounded=1;whiteSpace=wrap;verticalAlign=middle;align=center" 
          id="module_web" 
          parent="examples" 
          value="web" 
          vertex="1"
          >
          <mxGeometry
            width="100" 
            height="30" 
            as="geometry" 
            x="210" 
            y="210"
            />
          </mxCell>
        <mxCell
          id="dependency" 
          source="renderers" 
          target="base_renderer_baserenderer" 
          parent="root" 
          edge="1" 
          style="edgeStyle=orthogonalEdgeStyle;rounded=1;orthogonalLoop=1;jettySize=auto;html=1;startArrow=none;startFill=0;endArrow=block;endFill=1"
          >
          <mxGeometry
            relative="1" 
            as="geometry"
            >
            <Array
              as="points"
              >
              <mxPoint
                x="290" 
                y="150"
                />
              <mxPoint
                x="290" 
                y="150"
                />
              </Array>
            </mxGeometry>
          </mxCell>
        <mxCell
          id="dependency_2" 
          source="clients" 
          target="renderers" 
          parent="root" 
          edge="1" 
          style="edgeStyle=orthogonalEdgeStyle;rounded=1;orthogonalLoop=1;jettySize=auto;html=1;startArrow=none;startFill=0;endArrow=block;endFill=1"
          >
          <mxGeometry
            relative="1" 
            as="geometry"
            >
            <Array
              as="points"
              >
              <mxPoint
                x="840" 
                y="225"
                />
              <mxPoint
                x="840" 
                y="225"
                />
              </Array>
            </mxGeometry>
          </mxCell>
        <mxCell
          id="dependency_3" 
          source="module_runner" 
          target="module_cli" 
          parent="root" 
          edge="1" 
          style="edgeStyle=orthogonalEdgeStyle;rounded=1;orthogonalLoop=1;jettySize=auto;html=1;dashed=1;startArrow=none;startFill=0;endArrow=block;endFill=1"
          >
          <mxGeometry
            relative="1" 
            as="geometry"
            >
            <Array
              as="points"
              >
              <mxPoint
                x="717.5" 
                y="225"
                />
              <mxPoint
                x="717.5" 
                y="225"
                />
              </Array>
            </mxGeometry>
          </mxCell>
        <mxCell
          id="dependency_4" 
          source="module_actions" 
          target="module_runner" 
          parent="root" 
          edge="1" 
          style="edgeStyle=orthogonalEdgeStyle;rounded=1;orthogonalLoop=1;jettySize=auto;html=1;startArrow=none;startFill=0;endArrow=block;endFill=1"
          >
          <mxGeometry
            relative="1" 
            as="geometry"
            >
            <Array
              as="points"
              >
              <mxPoint
                x="840" 
                y="75"
                />
              <mxPoint
                x="840" 
                y="75"
                />
              </Array>
            </mxGeometry>
          </mxCell>
        <mxCell
          id="dependency_5" 
          source="module_components" 
          target="module_types" 
          parent="root" 
          edge="1" 
          style="edgeStyle=orthogonalEdgeStyle;rounded=1;orthogonalLoop=1;jettySize=auto;html=1;startArrow=none;startFill=0;endArrow=block;endFill=1"
          >
          <mxGeometry
            relative="1" 
            as="geometry"
            >
            <Array
              as="points"
              >
              <mxPoint
                x="208.33333333333334" 
                y="375"
                />
              <mxPoint
                x="208.33333333333334" 
                y="375"
                />
              </Array>
            </mxGeometry>
          </mxCell>
        <mxCell
          id="dependency_6" 
          source="module_components" 
          target="module_contexts" 
          parent="root" 
          edge="1" 
          style="edgeStyle=orthogonalEdgeStyle;rounded=1;orthogonalLoop=1;jettySize=auto;html=1;startArrow=none;startFill=0;endArrow=block;endFill=1"
          >
          <mxGeometry
            relative="1" 
            as="geometry"
            >
            <Array
              as="points"
              >
              <mxPoint
                x="371.6666666666667" 
                y="375"
                />
              <mxPoint
                x="371.6666666666667" 
                y="375"
                />
              </Array>
            </mxGeometry>
          </mxCell>
        <mxCell
          id="dependency_7" 
          source="base_renderer_baserenderer" 
          target="base_components_basecomponents" 
          parent="root" 
          edge="1" 
          style="edgeStyle=orthogonalEdgeStyle;rounded=1;orthogonalLoop=1;jettySize=auto;html=1;startArrow=none;startFill=0;endArrow=block;endFill=1"
          >
          <mxGeometry
            relative="1" 
            as="geometry"
            >
            <Array
              as="points"
              >
              <mxPoint
                x="290" 
                y="300"
                />
              <mxPoint
                x="290" 
                y="300"
                />
              </Array>
            </mxGeometry>
          </mxCell>
        <mxCell
          id="dependency_8" 
          source="standard_components_standardcomponents" 
          target="base_components_basecomponents" 
          parent="root" 
          edge="1" 
          style="edgeStyle=orthogonalEdgeStyle;rounded=1;orthogonalLoop=1;jettySize=auto;html=1;startArrow=none;startFill=0;endArrow=block;endFill=1"
          >
          <mxGeometry
            relative="1" 
            as="geometry"
            >
            <Array
              as="points"
              >
              <mxPoint
                x="290" 
                y="450"
                />
              <mxPoint
                x="290" 
                y="450"
                />
              <mxPoint
                x="290" 
                y="450"
                />
              <mxPoint
                x="290" 
                y="450"
                />
              </Array>
            </mxGeometry>
          </mxCell>
        <mxCell
          id="dependency_9" 
          source="clients" 
          target="examples" 
          parent="root" 
          edge="1" 
          style="edgeStyle=orthogonalEdgeStyle;rounded=1;orthogonalLoop=1;jettySize=auto;html=1;dashed=1;startArrow=none;startFill=0;endArrow=block;endFill=1"
          >
          <mxGeometry
            relative="1" 
            as="geometry"
            >
            <Array
              as="points"
              >
              <mxPoint
                x="840" 
                y="450"
                />
              <mxPoint
                x="840" 
                y="450"
                />
              </Array>
            </mxGeometry>
          </mxCell>
        <mxCell
          id="dependency_10" 
          source="standard_components_standardcomponents" 
          target="base_components_basecomponents" 
          parent="root" 
          edge="1" 
          style="edgeStyle=orthogonalEdgeStyle;rounded=1;orthogonalLoop=1;jettySize=auto;html=1;startArrow=none;startFill=0;endArrow=block;endFill=1"
          >
          <mxGeometry
            relative="1" 
            as="geometry"
            />
          </mxCell>
        <mxCell
          id="dependency_11" 
          source="module_diagram" 
          target="module_standarddiagrams" 
          parent="root" 
          edge="1" 
          style="edgeStyle=orthogonalEdgeStyle;rounded=1;orthogonalLoop=1;jettySize=auto;html=1;startArrow=none;startFill=0;endArrow=block;endFill=1"
          >
          <mxGeometry
            relative="1" 
            as="geometry"
            >
            <Array
              as="points"
              >
              <mxPoint
                x="565" 
                y="525"
                />
              <mxPoint
                x="565" 
                y="525"
                />
              </Array>
            </mxGeometry>
          </mxCell>
        <mxCell
          id="dependency_12" 
          source="module_iac" 
          target="module_standardcomponentsaws" 
          parent="root" 
          edge="1" 
          style="edgeStyle=orthogonalEdgeStyle;rounded=1;orthogonalLoop=1;jettySize=auto;html=1;startArrow=none;startFill=0;endArrow=block;endFill=1"
          >
          <mxGeometry
            relative="1" 
            as="geometry"
            >
            <Array
              as="points"
              >
              <mxPoint
                x="565" 
                y="615"
                />
              <mxPoint
                x="565" 
                y="615"
                />
              </Array>
            </mxGeometry>
          </mxCell>
        <mxCell
          id="dependency_13" 
          source="module_web" 
          target="standard_components_standardcomponents" 
          parent="root" 
          edge="1" 
          style="edgeStyle=orthogonalEdgeStyle;rounded=1;orthogonalLoop=1;jettySize=auto;html=1;startArrow=none;startFill=0;endArrow=block;endFill=1"
          >
          <mxGeometry
            relative="1" 
            as="geometry"
            >
            <Array
              as="points"
              >
              <mxPoint
                x="670" 
                y="705"
                />
              <mxPoint
                x="670" 
                y="705"
                />
              </Array>
            </mxGeometry>
          </mxCell>
        </root>
      </mxGraphModel>
    </diagram>
  </mxfile>